<svg viewBox="0 0 140 80" width="50" height="40">
<path
  inkscape:connector-curvature="0"
  d="M 17.540637,0.29279286 A 2.6220208,2.6220208 0 0 0 14.978003,2.0735629 L 1.0873772,42.554814 a 2.7225625,2.7225625 0 0 0 0.1322916,1.984375 2.5638125,2.5638125 0 0 0 1.5079184,1.322916 l 16.5633308,5.688538 a 2.3600833,2.3600833 0 0 0 0.84646,0.1323 2.6458333,2.6458333 0 0 0 2.487186,-1.773025 l 12.990939,-37.91448 0.661458,0.237712 a 13.435542,13.435542 0 0 0 10.31875,-0.581877 l 1.613855,-0.79375 a 8.1174167,8.1174167 0 0 1 6.191354,-0.37052 L 84.61613,20.91169 c -0.3175,1.164166 -0.926042,2.513748 -1.984375,3.254582 -1.217083,0.846666 -3.095625,0.846666 -5.55625,0 l -13.54646,-4.630209 a 2.6220208,2.6220208 0 0 0 -2.090312,0.185002 2.6802292,2.6802292 0 0 0 -1.296561,1.64021 c -0.02646,0.07938 -1.931459,7.064789 -7.805209,10.21333 -3.704166,1.984375 -8.334375,2.037083 -13.758333,0.184999 a 2.6273125,2.6273125 0 1 0 -1.692921,4.974376 c 3.175,1.084792 6.19125,1.640208 8.995834,1.640208 a 18.751021,18.751021 0 0 0 8.968962,-2.196248 c 5.291667,-2.8575 8.09625,-7.778335 9.392708,-10.821043 l 11.1125,3.809584 c 4.1275,1.402292 7.567393,1.190625 10.239685,-0.661458 4.206875,-2.910415 4.497813,-8.598543 4.524272,-9.233543 A 2.6775833,2.6775833 0 0 0 88.347168,16.704711 L 56.068001,5.5658559 a 13.417021,13.417021 0 0 0 -10.213329,0.635103 l -1.613856,0.79375 a 8.2020833,8.2020833 0 0 1 -6.270418,0.370521 L 35.298209,6.4123159 A 1.7541875,1.7541875 0 0 0 34.795398,6.1746049 L 18.311649,0.43283586 a 2.6220208,2.6220208 0 0 0 -0.771012,-0.140043 z m 91.713273,0.24598 a 2.6246667,2.6246667 0 0 0 -1.19838,0.272335 L 92.33969,8.5108959 a 2.6061458,2.6061458 0 0 0 -1.190625,3.4922931 l 17.938445,36.671146 -5.55625,5.106668 a 73.0885,73.0885 0 0 1 -17.171568,11.72073 l -30.082916,14.7376 a 2.4315208,2.4315208 0 0 1 -1.878439,0.10594 2.492375,2.492375 0 0 1 -1.402498,-1.24386 2.4315208,2.4315208 0 0 1 -0.105939,-1.87843 2.492375,2.492375 0 0 1 1.246436,-1.4025 l 16.827397,-8.22844 a 2.6091324,2.6091324 0 0 0 -2.301669,-4.68292 l -16.827396,8.22844 -7.9375,3.88917 a 2.4315208,2.4315208 0 0 1 -1.878955,0.10593 2.492375,2.492375 0 0 1 -1.401982,-1.24333 2.4315208,2.4315208 0 0 1 -0.105936,-1.87844 2.492375,2.492375 0 0 1 1.243335,-1.4025 l 24.130309,-11.80031 a 2.6093419,2.6093419 0 0 0 -2.302184,-4.68344 l -27.119792,13.25604 a 2.4844375,2.4844375 0 0 1 -3.28042,-1.11156 2.4315208,2.4315208 0 0 1 -0.105937,-1.87844 2.492375,2.492375 0 0 1 1.243335,-1.40249 l 10.68927,-5.23844 13.890625,-6.80011 A 2.6091324,2.6091324 0 0 0 56.597168,46.26673 L 34.9804,56.850063 a 2.4500417,2.4500417 0 0 1 -2.169377,-4.39198 l 11.48302,-5.609476 a 2.6091324,2.6091324 0 0 0 -2.302185,-4.682919 l -11.485602,5.60896 a 7.6887917,7.6887917 0 0 0 -1.349272,12.964585 7.5617917,7.5617917 0 0 0 -0.661458,7.79745 7.6729167,7.6729167 0 0 0 6.640938,4.28605 7.8925208,7.8925208 0 0 0 0.767395,3.36052 7.5485625,7.5485625 0 0 0 4.418333,3.88916 7.5115208,7.5115208 0 0 0 5.847707,-0.37052 l 1.375627,-0.68781 a 7.9375,7.9375 0 0 0 0.714166,2.38125 7.5485625,7.5485625 0 0 0 4.418854,3.88969 7.5115208,7.5115208 0 0 0 5.847188,-0.37052 L 88.60865,70.176893 a 77.456771,77.456771 0 0 0 18.41542,-12.5677 l 6.72,-6.16448 15.37271,-7.514275 a 2.6061458,2.6061458 0 0 0 1.19062,-3.492291 L 111.5747,2.0017319 A 2.6246667,2.6246667 0 0 0 109.25391,0.53877286 Z M 19.102816,6.2350659 30.691774,10.203816 18.520939,45.737563 6.9319816,41.768813 Z M 108.0054,6.6588129 124.51551,40.384918 113.50894,45.782521 96.998839,12.0559 Z"/>
</svg>
