<svg xmlns="http://www.w3.org/2000/svg" xmlns:xlink="http://www.w3.org/1999/xlink"><symbol id="icon-arrow" viewBox="0 0 16 6">
  <path d="M635,2692v6l4-3Zm-12,2h13v2H623v-2Z" transform="translate(-623 -2692)"/>
</symbol><symbol id="icon-fb" viewBox="0 0 155.139 155.139">
  <path d="M89.584,155.139V84.378h23.742l3.562-27.585H89.584V39.184 c0-7.984,2.208-13.425,13.67-13.425l14.595-0.006V1.08C115.325,0.752,106.661,0,96.577,0C75.52,0,61.104,12.853,61.104,36.452
                        v20.341H37.29v27.585h23.814v70.761H89.584z"/>

</symbol><symbol id="icon-geo" viewBox="0 0 12 15">
  <path d="M1352.79,4354a6.021,6.021,0,0,0-5.76,5.4,5.788,5.788,0,0,0,.08,1.72h0s0.01,0.06.04,0.18a5.742,5.742,0,0,0,.4,1.19,17.214,17.214,0,0,0,5.12,6.38,0.514,0.514,0,0,0,.66,0,17.435,17.435,0,0,0,5.12-6.38,5.948,5.948,0,0,0,.4-1.19c0.03-.12.04-0.19,0.04-0.19h0A5.974,5.974,0,0,0,1352.79,4354Zm0.21,8.96a2.91,2.91,0,1,1,2.91-2.91A2.921,2.921,0,0,1,1353,4362.96Z" transform="translate(-1347 -4354)"/>
</symbol><symbol id="icon-hand" viewBox="0 0 140 80">
<path inkscape:connector-curvature="0" d="M 17.540637,0.29279286 A 2.6220208,2.6220208 0 0 0 14.978003,2.0735629 L 1.0873772,42.554814 a 2.7225625,2.7225625 0 0 0 0.1322916,1.984375 2.5638125,2.5638125 0 0 0 1.5079184,1.322916 l 16.5633308,5.688538 a 2.3600833,2.3600833 0 0 0 0.84646,0.1323 2.6458333,2.6458333 0 0 0 2.487186,-1.773025 l 12.990939,-37.91448 0.661458,0.237712 a 13.435542,13.435542 0 0 0 10.31875,-0.581877 l 1.613855,-0.79375 a 8.1174167,8.1174167 0 0 1 6.191354,-0.37052 L 84.61613,20.91169 c -0.3175,1.164166 -0.926042,2.513748 -1.984375,3.254582 -1.217083,0.846666 -3.095625,0.846666 -5.55625,0 l -13.54646,-4.630209 a 2.6220208,2.6220208 0 0 0 -2.090312,0.185002 2.6802292,2.6802292 0 0 0 -1.296561,1.64021 c -0.02646,0.07938 -1.931459,7.064789 -7.805209,10.21333 -3.704166,1.984375 -8.334375,2.037083 -13.758333,0.184999 a 2.6273125,2.6273125 0 1 0 -1.692921,4.974376 c 3.175,1.084792 6.19125,1.640208 8.995834,1.640208 a 18.751021,18.751021 0 0 0 8.968962,-2.196248 c 5.291667,-2.8575 8.09625,-7.778335 9.392708,-10.821043 l 11.1125,3.809584 c 4.1275,1.402292 7.567393,1.190625 10.239685,-0.661458 4.206875,-2.910415 4.497813,-8.598543 4.524272,-9.233543 A 2.6775833,2.6775833 0 0 0 88.347168,16.704711 L 56.068001,5.5658559 a 13.417021,13.417021 0 0 0 -10.213329,0.635103 l -1.613856,0.79375 a 8.2020833,8.2020833 0 0 1 -6.270418,0.370521 L 35.298209,6.4123159 A 1.7541875,1.7541875 0 0 0 34.795398,6.1746049 L 18.311649,0.43283586 a 2.6220208,2.6220208 0 0 0 -0.771012,-0.140043 z m 91.713273,0.24598 a 2.6246667,2.6246667 0 0 0 -1.19838,0.272335 L 92.33969,8.5108959 a 2.6061458,2.6061458 0 0 0 -1.190625,3.4922931 l 17.938445,36.671146 -5.55625,5.106668 a 73.0885,73.0885 0 0 1 -17.171568,11.72073 l -30.082916,14.7376 a 2.4315208,2.4315208 0 0 1 -1.878439,0.10594 2.492375,2.492375 0 0 1 -1.402498,-1.24386 2.4315208,2.4315208 0 0 1 -0.105939,-1.87843 2.492375,2.492375 0 0 1 1.246436,-1.4025 l 16.827397,-8.22844 a 2.6091324,2.6091324 0 0 0 -2.301669,-4.68292 l -16.827396,8.22844 -7.9375,3.88917 a 2.4315208,2.4315208 0 0 1 -1.878955,0.10593 2.492375,2.492375 0 0 1 -1.401982,-1.24333 2.4315208,2.4315208 0 0 1 -0.105936,-1.87844 2.492375,2.492375 0 0 1 1.243335,-1.4025 l 24.130309,-11.80031 a 2.6093419,2.6093419 0 0 0 -2.302184,-4.68344 l -27.119792,13.25604 a 2.4844375,2.4844375 0 0 1 -3.28042,-1.11156 2.4315208,2.4315208 0 0 1 -0.105937,-1.87844 2.492375,2.492375 0 0 1 1.243335,-1.40249 l 10.68927,-5.23844 13.890625,-6.80011 A 2.6091324,2.6091324 0 0 0 56.597168,46.26673 L 34.9804,56.850063 a 2.4500417,2.4500417 0 0 1 -2.169377,-4.39198 l 11.48302,-5.609476 a 2.6091324,2.6091324 0 0 0 -2.302185,-4.682919 l -11.485602,5.60896 a 7.6887917,7.6887917 0 0 0 -1.349272,12.964585 7.5617917,7.5617917 0 0 0 -0.661458,7.79745 7.6729167,7.6729167 0 0 0 6.640938,4.28605 7.8925208,7.8925208 0 0 0 0.767395,3.36052 7.5485625,7.5485625 0 0 0 4.418333,3.88916 7.5115208,7.5115208 0 0 0 5.847707,-0.37052 l 1.375627,-0.68781 a 7.9375,7.9375 0 0 0 0.714166,2.38125 7.5485625,7.5485625 0 0 0 4.418854,3.88969 7.5115208,7.5115208 0 0 0 5.847188,-0.37052 L 88.60865,70.176893 a 77.456771,77.456771 0 0 0 18.41542,-12.5677 l 6.72,-6.16448 15.37271,-7.514275 a 2.6061458,2.6061458 0 0 0 1.19062,-3.492291 L 111.5747,2.0017319 A 2.6246667,2.6246667 0 0 0 109.25391,0.53877286 Z M 19.102816,6.2350659 30.691774,10.203816 18.520939,45.737563 6.9319816,41.768813 Z M 108.0054,6.6588129 124.51551,40.384918 113.50894,45.782521 96.998839,12.0559 Z"/>
</symbol><symbol id="icon-like" viewBox="0 0 500 500">
  <path d="M475.21,188.1a25.12,25.12,0,0,0-11-33.8l-54-27.4a5.16,5.16,0,0,1-2.8-3.9L398,63.2A25,25,0,0,0,373.21,42a26.93,26.93,0,0,0-4,.3l-59.8,9.5a5.23,5.23,0,0,1-4.6-1.5L262.11,7.4a25.11,25.11,0,0,0-35.6,0l-42.8,42.8a5.46,5.46,0,0,1-3.8,1.6,2,2,0,0,1-.8-.1l-59.8-9.5a26.93,26.93,0,0,0-4-.3,25,25,0,0,0-24.8,21.2l-9.4,59.8a5.4,5.4,0,0,1-2.8,3.9l-54,27.4a24.77,24.77,0,0,0-12.5,14.6,25.13,25.13,0,0,0,1.5,19.2l27.5,53.9a5.1,5.1,0,0,1,0,4.8l-27.5,53.9a25.12,25.12,0,0,0,11,33.8l54,27.4a5.16,5.16,0,0,1,2.8,3.9l9.4,59.8a25,25,0,0,0,24.8,21.2,26.93,26.93,0,0,0,4-.3l59.8-9.5a5.23,5.23,0,0,1,4.6,1.5l42.8,42.8a25.11,25.11,0,0,0,35.6,0l42.8-42.8a5.23,5.23,0,0,1,4.6-1.5l59.8,9.5a26.93,26.93,0,0,0,4,.3,25,25,0,0,0,24.8-21.2l9.4-59.8a5.4,5.4,0,0,1,2.8-3.9l54-27.4a24.77,24.77,0,0,0,12.5-14.6,25.13,25.13,0,0,0-1.5-19.2l-27.5-53.9a5.1,5.1,0,0,1,0-4.8ZM430,255.8l27.5,53.9a5.31,5.31,0,0,1,.3,4.1,4.9,4.9,0,0,1-2.7,3.1l-54,27.4a25,25,0,0,0-13.4,18.5l-9.4,59.8a5.33,5.33,0,0,1-6.1,4.4l-59.8-9.5a26,26,0,0,0-4-.3,25,25,0,0,0-17.8,7.4l-42.5,42.8a5.44,5.44,0,0,1-7.5,0l-42.8-42.8a25.39,25.39,0,0,0-17.8-7.4,26.93,26.93,0,0,0-4,.3l-59.8,9.5a5.33,5.33,0,0,1-6.1-4.4l-9.4-59.8a25.19,25.19,0,0,0-13.4-18.5l-54-27.4a5.2,5.2,0,0,1-2.7-3.1,5.8,5.8,0,0,1,.3-4.1l27.5-53.9a25,25,0,0,0,0-22.9L30.91,179a5.31,5.31,0,0,1-.3-4.1,4.9,4.9,0,0,1,2.7-3.1l54-27.4a25,25,0,0,0,13.4-18.5l9.4-59.8a5.33,5.33,0,0,1,6.1-4.4L176,71.2a26,26,0,0,0,4,.3h0a25,25,0,0,0,17.8-7.4l42.7-42.7a5.44,5.44,0,0,1,7.5,0l42.8,42.8a24.8,24.8,0,0,0,17.8,7.4,26.93,26.93,0,0,0,4-.3l59.8-9.5a5.39,5.39,0,0,1,6.1,4.4l9.4,59.8a25.19,25.19,0,0,0,13.4,18.5l54,27.4A5.2,5.2,0,0,1,458,175a5.31,5.31,0,0,1-.3,4.1L430.21,233A24.81,24.81,0,0,0,430,255.8Z"/>
  <path d="M322.51,184.7h-44.1V154.1c0-16.2-4.9-28-14.6-35.1-14.9-11-34.4-5.3-36.6-4.6a9.87,9.87,0,0,0-6.9,9.4v39.1c0,27.5-32.8,37.2-34.1,37.6a11.92,11.92,0,0,0-2,.8,19.8,19.8,0,0,0-11.7-3.9h-28.3a19.53,19.53,0,0,0-19.5,19.5v97.7a19.53,19.53,0,0,0,19.5,19.5h28.3a19.87,19.87,0,0,0,12.7-4.7,35.37,35.37,0,0,0,22.6,8.2h95.8c23.2,0,38.7-12.8,41.4-34.2l12.9-81.8a7.57,7.57,0,0,0,.1-1.5A35.49,35.49,0,0,0,322.51,184.7ZM172.31,314.5h-27.8V217.3h27.8Zm153.2-13.8v.3c-.6,4.6-2.1,17-21.8,17h-95.8a15.83,15.83,0,0,1-15.8-15.8V219.5c5.6-1.7,48-15.8,48-56.5V132.2c4-.2,8.7.3,12,2.8,4.3,3.2,6.4,9.6,6.4,19.1v40.5a9.86,9.86,0,0,0,9.9,9.9h54a15.68,15.68,0,0,1,15.7,15.1Z"/>
</symbol><symbol id="icon-mail" viewBox="0 0 16 10.97">
  <path d="M1359,4492.42a1.9,1.9,0,0,0,1.99-1.79v-7.38a1.9,1.9,0,0,0-1.99-1.8h-12.01a1.911,1.911,0,0,0-1.99,1.8v7.38a1.9,1.9,0,0,0,1.99,1.79H1359Zm-11.96-8.47a0.415,0.415,0,0,1-.06-0.63,0.544,0.544,0,0,1,.69-0.05l5.33,4.07,5.32-4.06a0.533,0.533,0,0,1,.7.05,0.419,0.419,0,0,1-.06.62l-3.8,2.9,3.82,3.23a0.427,0.427,0,0,1,.02.63,0.537,0.537,0,0,1-.7.02l-3.9-3.3-1.09.83a0.5,0.5,0,0,1-.31.1,0.509,0.509,0,0,1-.32-0.1l-1.09-.83-3.9,3.3a0.543,0.543,0,0,1-.34.12,0.5,0.5,0,0,1-.35-0.14,0.413,0.413,0,0,1,.02-0.63l3.81-3.23Z" transform="translate(-1345 -4481.44)"/>
</symbol><symbol id="icon-menu" viewBox="0 0 18 14">
  <rect width="18" height="2" rx="1" ry="1"/>
  <rect y="6" width="18" height="2" rx="1" ry="1"/>
  <rect y="12" width="18" height="2" rx="1" ry="1"/>
</symbol><symbol id="icon-settings" viewBox="0 0 500 500">
  <path d="M239.9,4.15l-24.5,10.1a25.67,25.67,0,0,0-13.9,33.5l6.3,15.2a156,156,0,0,0-32.2,32.2l-15.2-6.3a25.65,25.65,0,0,0-33.5,13.9l-10.2,24.5a25.64,25.64,0,0,0,13.9,33.5l22.5,9.3a9.89,9.89,0,1,0,7.5-18.3l-22.5-9.3a5.93,5.93,0,0,1-3.2-7.7l10.2-24.5a5.9,5.9,0,0,1,7.7-3.2l22.5,9.3a9.87,9.87,0,0,0,12-3.6,135.53,135.53,0,0,1,38.1-38.1,10,10,0,0,0,3.7-12l-9.3-22.5a6,6,0,0,1,3.2-7.7l24.5-10.1a5.9,5.9,0,0,1,7.7,3.2l9.3,22.5A9.74,9.74,0,0,0,275.6,54a137.22,137.22,0,0,1,53.8,0,10,10,0,0,0,11.1-5.9l9.3-22.5a5.93,5.93,0,0,1,7.7-3.2L382,32.55a5.9,5.9,0,0,1,3.2,7.7l-9.3,22.5a9.87,9.87,0,0,0,3.6,12,135.53,135.53,0,0,1,38.1,38.1,10,10,0,0,0,12,3.7l22.5-9.3a5.9,5.9,0,0,1,7.7,3.2L469.9,135a5.9,5.9,0,0,1-3.2,7.7L444.2,152a9.85,9.85,0,0,0-5.9,11.1,137.22,137.22,0,0,1,0,53.8,10,10,0,0,0,5.9,11.1l22.5,9.3a5.93,5.93,0,0,1,3.2,7.7l-10.2,24.5a5.93,5.93,0,0,1-7.7,3.2l-22.5-9.3a9.87,9.87,0,0,0-12,3.6,135.53,135.53,0,0,1-38.1,38.1,10,10,0,0,0-3.7,12l9.3,22.5a5.9,5.9,0,0,1-3.2,7.7l-24.5,10.1a5.9,5.9,0,0,1-7.7-3.2l-9.3-22.5a9.89,9.89,0,1,0-18.3,7.5l9.3,22.5a25.6,25.6,0,0,0,13.9,13.9,26,26,0,0,0,9.8,2,25.63,25.63,0,0,0,9.8-2l24.5-10.1A25.65,25.65,0,0,0,403.2,332l-6.3-15.2a156,156,0,0,0,32.2-32.2l15.2,6.3A25.64,25.64,0,0,0,477.8,277l10.2-24.5A25.64,25.64,0,0,0,474.1,219l-15.2-6.3a157.66,157.66,0,0,0,0-45.5l15.2-6.3a25.65,25.65,0,0,0,13.9-33.5l-10.1-24.5A25.65,25.65,0,0,0,444.4,89l-15.2,6.3a155.52,155.52,0,0,0-32.1-32.2l6.3-15.2a25.65,25.65,0,0,0-13.9-33.5L365,4.15A25.64,25.64,0,0,0,331.5,18l-6.3,15.2a157.66,157.66,0,0,0-45.5,0L273.4,18a25.65,25.65,0,0,0-33.5-13.9Z" transform="translate(0 -2.2)"/>
  <path d="M382.9,189.25a80.58,80.58,0,0,0-80.5-79.9h-.6a80.58,80.58,0,0,0-80,81.1,9.9,9.9,0,0,0,9.9,9.8h.1a9.8,9.8,0,0,0,9.8-10,60.78,60.78,0,0,1,60.3-61.2h.4a60.75,60.75,0,0,1,.4,121.5,9.8,9.8,0,0,0-9.8,10,9.9,9.9,0,0,0,9.9,9.8h.1A80.6,80.6,0,0,0,382.9,189.25Z" transform="translate(0 -2.2)"/>
  <path d="M135.3,487.75h19.3a21.42,21.42,0,0,0,21.4-21.4v-9.9a113.4,113.4,0,0,0,27.4-11.4l7,7a21.35,21.35,0,0,0,15.1,6.3,20.94,20.94,0,0,0,15.1-6.3l13.6-13.6a21.35,21.35,0,0,0,6.3-15.1,20.94,20.94,0,0,0-6.3-15.1l-7-7a113.4,113.4,0,0,0,11.4-27.4h9.9a21.42,21.42,0,0,0,21.4-21.4v-19.3a21.42,21.42,0,0,0-21.4-21.4h-9.9a113.4,113.4,0,0,0-11.4-27.4l7-7a21.35,21.35,0,0,0,6.3-15.1,20.94,20.94,0,0,0-6.3-15.1l-13.6-13.6a21.35,21.35,0,0,0-15.1-6.3,20.94,20.94,0,0,0-15.1,6.3l-7,7a113.4,113.4,0,0,0-27.4-11.4v-9.9a21.42,21.42,0,0,0-21.4-21.4H135.3a21.42,21.42,0,0,0-21.4,21.4v9.9a113.4,113.4,0,0,0-27.4,11.4l-7-7a21.35,21.35,0,0,0-15.1-6.3,20.94,20.94,0,0,0-15.1,6.3l-13.6,13.6a21.43,21.43,0,0,0,0,30.2l7,7a113.4,113.4,0,0,0-11.4,27.4H21.4A21.42,21.42,0,0,0,0,333.15v19.3a21.42,21.42,0,0,0,21.4,21.4h9.9a113.4,113.4,0,0,0,11.4,27.4l-7,7a21.43,21.43,0,0,0,0,30.2l13.6,13.6a21.35,21.35,0,0,0,15.1,6.3,20.94,20.94,0,0,0,15.1-6.3l7-7a113.4,113.4,0,0,0,27.4,11.4v9.9A21.55,21.55,0,0,0,135.3,487.75Zm-44.7-63.4a10.16,10.16,0,0,0-5.5-1.7,9.84,9.84,0,0,0-7,2.9L65.6,438a1.46,1.46,0,0,1-2.2,0l-13.6-13.6a1.57,1.57,0,0,1,0-2.2l12.5-12.5a9.85,9.85,0,0,0,1.2-12.5A96.44,96.44,0,0,1,48.9,362a10,10,0,0,0-9.7-8H21.5a1.58,1.58,0,0,1-1.6-1.6v-19.3a1.58,1.58,0,0,1,1.6-1.6H39.2a9.85,9.85,0,0,0,9.7-8,96.44,96.44,0,0,1,14.6-35.2,10,10,0,0,0-1.2-12.5l-12.5-12.5a1.57,1.57,0,0,1,0-2.2l13.6-13.6a1.46,1.46,0,0,1,2.2,0l12.5,12.7a9.85,9.85,0,0,0,12.5,1.2,96.44,96.44,0,0,1,35.2-14.6,10,10,0,0,0,8-9.7v-17.7a1.58,1.58,0,0,1,1.6-1.6h19.3a1.58,1.58,0,0,1,1.6,1.6v17.7a9.85,9.85,0,0,0,8,9.7,96.44,96.44,0,0,1,35.2,14.6,10,10,0,0,0,12.5-1.2l12.5-12.5a1.46,1.46,0,0,1,2.2,0l13.6,13.6a1.46,1.46,0,0,1,0,2.2L227.8,276a9.85,9.85,0,0,0-1.2,12.5,96.44,96.44,0,0,1,14.6,35.2,10,10,0,0,0,9.7,8h17.7a1.58,1.58,0,0,1,1.6,1.6v19.3a1.58,1.58,0,0,1-1.6,1.6H250.9a9.85,9.85,0,0,0-9.7,8,96.44,96.44,0,0,1-14.6,35.2,10,10,0,0,0,1.2,12.5l12.5,12.5a1.46,1.46,0,0,1,0,2.2l-13.6,13.6a1.46,1.46,0,0,1-2.2,0L212,425.75a9.85,9.85,0,0,0-12.5-1.2,96.44,96.44,0,0,1-35.2,14.6,10,10,0,0,0-8,9.7v17.7a1.58,1.58,0,0,1-1.6,1.6H135.4a1.58,1.58,0,0,1-1.6-1.6v-17.7a9.85,9.85,0,0,0-8-9.7A100.42,100.42,0,0,1,90.6,424.35Z" transform="translate(0 -2.2)" id="path12"/>
  <path d="M203.7,343a58.75,58.75,0,1,0-58.7,58.8A58.9,58.9,0,0,0,203.7,343ZM106,343a39,39,0,1,1,39,39A39.05,39.05,0,0,1,106,343Z" transform="translate(0 -2.2)"/>
</symbol><symbol id="icon-tel" viewBox="0 0 13.03 11.94">
  <path d="M1357.99,4550.68a3.341,3.341,0,0,1-3.27,2.07,3.4,3.4,0,0,1-.45-0.03,11.112,11.112,0,0,1-5.83-3.13,9.761,9.761,0,0,1-3.41-5.34,2.833,2.833,0,0,1,2.23-3.41,1.241,1.241,0,0,1,.27-0.03c0.97,0,2.12,1.25,2.53,2.15a1.084,1.084,0,0,1-.06,1.31,2.1,2.1,0,0,0-1,1.46,3.313,3.313,0,0,0,1.19,1.6c0.09,0.09.22,0.21,0.36,0.34s0.25,0.22.36,0.32a3.341,3.341,0,0,0,1.81,1.09,2.479,2.479,0,0,0,1.53-.91,0.918,0.918,0,0,1,.64-0.22,4.312,4.312,0,0,1,2.71,1.51A1.326,1.326,0,0,1,1357.99,4550.68Z" transform="translate(-1345 -4540.81)"/>
</symbol><symbol id="icon-triangle" viewBox="0 0 8 5">
  <path d="M346,1037h8l-4,5Z" transform="translate(-346 -1037)"/>
</symbol><symbol id="icon-twitter" viewBox="0 0 612 612">
    <path d="M612,116.258c-22.525,9.981-46.694,16.75-72.088,19.772c25.929-15.527,45.777-40.155,55.184-69.411    c-24.322,14.379-51.169,24.82-79.775,30.48c-22.907-24.437-55.49-39.658-91.63-39.658c-69.334,0-125.551,56.217-125.551,125.513    c0,9.828,1.109,19.427,3.251,28.606C197.065,206.32,104.556,156.337,42.641,80.386c-10.823,18.51-16.98,40.078-16.98,63.101    c0,43.559,22.181,81.993,55.835,104.479c-20.575-0.688-39.926-6.348-56.867-15.756v1.568c0,60.806,43.291,111.554,100.693,123.104    c-10.517,2.83-21.607,4.398-33.08,4.398c-8.107,0-15.947-0.803-23.634-2.333c15.985,49.907,62.336,86.199,117.253,87.194    c-42.947,33.654-97.099,53.655-155.916,53.655c-10.134,0-20.116-0.612-29.944-1.721c55.567,35.681,121.536,56.485,192.438,56.485    c230.948,0,357.188-191.291,357.188-357.188l-0.421-16.253C573.872,163.526,595.211,141.422,612,116.258z"/>
</symbol><symbol id="icon-vk" viewBox="0 0 548.358 548.358">
  <path d="M545.451,400.298c-0.664-1.431-1.283-2.618-1.858-3.569c-9.514-17.135-27.695-38.167-54.532-63.102l-0.567-0.571
    l-0.284-0.28l-0.287-0.287h-0.288c-12.18-11.611-19.893-19.418-23.123-23.415c-5.91-7.614-7.234-15.321-4.004-23.13
    c2.282-5.9,10.854-18.36,25.696-37.397c7.807-10.089,13.99-18.175,18.556-24.267c32.931-43.78,47.208-71.756,42.828-83.939
    l-1.701-2.847c-1.143-1.714-4.093-3.282-8.846-4.712c-4.764-1.427-10.853-1.663-18.278-0.712l-82.224,0.568
    c-1.332-0.472-3.234-0.428-5.712,0.144c-2.475,0.572-3.713,0.859-3.713,0.859l-1.431,0.715l-1.136,0.859
    c-0.952,0.568-1.999,1.567-3.142,2.995c-1.137,1.423-2.088,3.093-2.848,4.996c-8.952,23.031-19.13,44.444-30.553,64.238
    c-7.043,11.803-13.511,22.032-19.418,30.693c-5.899,8.658-10.848,15.037-14.842,19.126c-4,4.093-7.61,7.372-10.852,9.849
    c-3.237,2.478-5.708,3.525-7.419,3.142c-1.715-0.383-3.33-0.763-4.859-1.143c-2.663-1.714-4.805-4.045-6.42-6.995
    c-1.622-2.95-2.714-6.663-3.285-11.136c-0.568-4.476-0.904-8.326-1-11.563c-0.089-3.233-0.048-7.806,0.145-13.706
    c0.198-5.903,0.287-9.897,0.287-11.991c0-7.234,0.141-15.085,0.424-23.555c0.288-8.47,0.521-15.181,0.716-20.125
    c0.194-4.949,0.284-10.185,0.284-15.705s-0.336-9.849-1-12.991c-0.656-3.138-1.663-6.184-2.99-9.137
    c-1.335-2.95-3.289-5.232-5.853-6.852c-2.569-1.618-5.763-2.902-9.564-3.856c-10.089-2.283-22.936-3.518-38.547-3.71
    c-35.401-0.38-58.148,1.906-68.236,6.855c-3.997,2.091-7.614,4.948-10.848,8.562c-3.427,4.189-3.905,6.475-1.431,6.851
    c11.422,1.711,19.508,5.804,24.267,12.275l1.715,3.429c1.334,2.474,2.666,6.854,3.999,13.134c1.331,6.28,2.19,13.227,2.568,20.837
    c0.95,13.897,0.95,25.793,0,35.689c-0.953,9.9-1.853,17.607-2.712,23.127c-0.859,5.52-2.143,9.993-3.855,13.418
    c-1.715,3.426-2.856,5.52-3.428,6.28c-0.571,0.76-1.047,1.239-1.425,1.427c-2.474,0.948-5.047,1.431-7.71,1.431
    c-2.667,0-5.901-1.334-9.707-4c-3.805-2.666-7.754-6.328-11.847-10.992c-4.093-4.665-8.709-11.184-13.85-19.558
    c-5.137-8.374-10.467-18.271-15.987-29.691l-4.567-8.282c-2.855-5.328-6.755-13.086-11.704-23.267
    c-4.952-10.185-9.329-20.037-13.134-29.554c-1.521-3.997-3.806-7.04-6.851-9.134l-1.429-0.859c-0.95-0.76-2.475-1.567-4.567-2.427
    c-2.095-0.859-4.281-1.475-6.567-1.854l-78.229,0.568c-7.994,0-13.418,1.811-16.274,5.428l-1.143,1.711
    C0.288,140.146,0,141.668,0,143.763c0,2.094,0.571,4.664,1.714,7.707c11.42,26.84,23.839,52.725,37.257,77.659
    c13.418,24.934,25.078,45.019,34.973,60.237c9.897,15.229,19.985,29.602,30.264,43.112c10.279,13.515,17.083,22.176,20.412,25.981
    c3.333,3.812,5.951,6.662,7.854,8.565l7.139,6.851c4.568,4.569,11.276,10.041,20.127,16.416
    c8.853,6.379,18.654,12.659,29.408,18.85c10.756,6.181,23.269,11.225,37.546,15.126c14.275,3.905,28.169,5.472,41.684,4.716h32.834
    c6.659-0.575,11.704-2.669,15.133-6.283l1.136-1.431c0.764-1.136,1.479-2.901,2.139-5.276c0.668-2.379,1-5,1-7.851
    c-0.195-8.183,0.428-15.558,1.852-22.124c1.423-6.564,3.045-11.513,4.859-14.846c1.813-3.33,3.859-6.14,6.136-8.418
    c2.282-2.283,3.908-3.666,4.862-4.142c0.948-0.479,1.705-0.804,2.276-0.999c4.568-1.522,9.944-0.048,16.136,4.429
    c6.187,4.473,11.99,9.996,17.418,16.56c5.425,6.57,11.943,13.941,19.555,22.124c7.617,8.186,14.277,14.271,19.985,18.274
    l5.708,3.426c3.812,2.286,8.761,4.38,14.853,6.283c6.081,1.902,11.409,2.378,15.984,1.427l73.087-1.14
    c7.229,0,12.854-1.197,16.844-3.572c3.998-2.379,6.373-5,7.139-7.851c0.764-2.854,0.805-6.092,0.145-9.712
    C546.782,404.25,546.115,401.725,545.451,400.298z"/>
</symbol></svg>